# xmcd
#
# Track frame offsets:
#	225
#	15696
#	29194
#	43726
#	58258
#	74240
#	90252
#	105301
#	119947
#	131059
#	144309
#	158637
#	173608
#	186923
#	202289
#	216058
#	229078
#	242908
#	264512
#	278243
#
# Disc length: 3958 seconds
#
# Revision: 0
# Processed by: cddbd v1.5.1PL0 Copyright (c) Steve Scherf et al.
# Submitted via: dBpowerAMP V4.0
#
DISCID=380f7314
DTITLE=Various Artist - på G II
DYEAR=1999
DGENRE=Country
TTITLE0=Jag vill ha dig som du är - Tickis
TTITLE1=Rock'n roll - Avalon
TTITLE2=Torka bort dina tårar - Jitez
TTITLE3=Nya vägar - Orion
TTITLE4=Vägen hem till dig - Tendenz
TTITLE5=Kärlekens ö - Vingar
TTITLE6=Din för alltid - Åkes
TTITLE7=Dina ögon ber mig stanna - Orion
TTITLE8=Stay out of my arms - Jitez
TTITLE9=Om änglar finns - Tendenz
TTITLE10=Säg inte nej - Nova
TTITLE11=Skall du bara gå - Orion
TTITLE12=Ge henne rosor - Jitez
TTITLE13=Han var som sommaren - Tickis
TTITLE14=Arms of Mary - Tendenz
TTITLE15=Hand i hand - Vingar
TTITLE16=Kärleken blir större år för år - Åkes
TTITLE17=Bara du - Avalon
TTITLE18=Denna sommar'n skall bli vår - Chivaz
TTITLE19=Du är mitt allt - Contrazt
EXTD=
EXTT0=
EXTT1=
EXTT2=
EXTT3=
EXTT4=
EXTT5=
EXTT6=
EXTT7=
EXTT8=
EXTT9=
EXTT10=
EXTT11=
EXTT12=
EXTT13=
EXTT14=
EXTT15=
EXTT16=
EXTT17=
EXTT18=
EXTT19=
PLAYORDER=
